<svg width="1200" height="1200" viewBox="0 0 1200 1200" fill="none" xmlns="http://www.w3.org/2000/svg">
<mask id="mask0_409_3640" style="mask-type:alpha" maskUnits="userSpaceOnUse" x="0" y="0" width="1197" height="1197">
<circle cx="598.033" cy="598.033" r="598.033" fill="#D9D9D9"/>
</mask>
<g mask="url(#mask0_409_3640)">
<path d="M925.883 1091.76C923.138 1093.73 920.001 1095.69 917.256 1097.65C914.118 1099.61 911.373 1101.57 908.236 1103.14C905.491 1104.71 903.138 1106.27 900.393 1107.84C900.001 1108.24 899.609 1108.24 899.216 1108.63C890.197 1114.12 880.785 1119.22 871.373 1123.92C868.628 1125.49 865.491 1127.06 862.746 1128.24C862.746 1128.24 862.354 1128.63 861.962 1128.63C858.824 1130.2 855.687 1131.76 852.55 1133.33C846.275 1136.47 839.609 1139.22 833.334 1141.96C830.197 1143.53 826.667 1144.71 823.53 1145.88C820.393 1147.06 816.864 1148.63 813.726 1149.8C810.589 1150.98 807.06 1152.55 803.922 1153.73C803.922 1153.73 803.922 1153.73 803.53 1153.73C800.393 1154.9 796.864 1156.08 793.726 1157.25C786.667 1159.61 779.216 1161.96 772.158 1164.31C769.805 1165.1 767.06 1165.88 764.707 1166.67C757.256 1169.02 749.805 1170.98 742.354 1172.55C739.609 1173.33 736.864 1173.73 733.726 1174.51C726.667 1176.08 719.216 1177.65 712.158 1179.22C710.589 1179.61 709.413 1179.61 707.844 1180C705.491 1180.39 702.746 1180.78 700.393 1181.18C696.864 1181.57 693.726 1182.35 690.197 1182.74C688.628 1183.14 687.06 1183.14 685.491 1183.53C683.53 1183.92 681.177 1184.31 678.824 1184.31C672.55 1185.1 665.883 1185.88 659.609 1186.67C657.648 1187.06 655.295 1187.06 653.334 1187.45H652.942C650.197 1187.84 647.452 1187.84 644.707 1188.24C641.962 1188.63 639.217 1188.63 636.471 1188.63C634.903 1188.63 632.942 1189.02 631.373 1189.02C628.236 1189.02 625.491 1189.41 622.746 1189.41C618.824 1189.41 615.295 1189.8 611.373 1189.8C607.452 1189.8 603.922 1189.8 600.001 1189.8C597.256 1189.8 594.511 1189.8 591.765 1189.8C426.275 1187.45 277.648 1117.25 171.373 1005.88C171.373 1005.88 171.373 1005.49 170.981 1005.49C159.216 994.902 169.413 938.431 216.864 902.745C276.471 857.647 419.217 829.412 419.217 829.412C419.217 829.412 474.511 820.392 679.609 863.137C799.609 888.235 890.981 924.706 941.962 1023.53C952.55 1043.92 963.138 1075.29 925.883 1091.76Z" fill="white"/>
<path d="M680.785 858.823C756.079 874.118 836.471 890.588 898.432 940.392C919.216 957.255 932.942 981.961 944.315 1005.88C949.805 1017.65 955.295 1029.8 959.609 1042.75C961.962 1051.37 965.491 1061.18 963.53 1071.37C963.138 1074.12 960.785 1077.65 958.824 1079.61C949.805 1088.63 940.001 1094.12 930.197 1101.18C872.55 1141.18 806.275 1169.41 737.648 1184.31C584.707 1217.65 419.216 1191.76 284.707 1111.37C240.001 1084.31 198.824 1051.37 163.53 1012.55C159.609 1007.84 159.609 1000 159.609 994.902C160.001 983.137 163.138 971.765 167.06 961.176C176.471 936.863 188.628 912.549 209.413 895.686C224.315 885.49 240.393 876.863 256.864 869.804C308.628 847.843 363.138 832.549 419.216 826.274C423.922 825.882 424.707 832.549 420.001 833.333C366.275 844.314 312.942 860.784 263.138 883.137C245.099 892.157 225.883 900 211.373 914.118C197.648 929.02 187.844 947.451 180.001 966.274C174.903 977.647 171.373 995.686 172.942 1004.71C197.648 1034.12 226.667 1060 258.04 1082.35C429.805 1202.35 690.589 1210.2 873.334 1110.2C889.805 1101.18 905.883 1090.98 921.177 1080.39C928.628 1075.29 936.471 1070.98 942.354 1065.1C942.746 1064.71 942.354 1065.1 942.354 1065.49C942.354 1065.88 941.962 1066.27 941.962 1066.27C942.354 1061.57 940.785 1055.29 938.824 1049.02C931.765 1026.27 920.393 1002.35 908.236 981.569C889.02 950.588 856.471 930.98 823.53 915.294C800.785 904.706 776.863 896.471 752.55 888.627C728.236 880.784 703.53 874.118 678.824 868.235C672.55 866.667 674.511 857.647 680.785 858.823Z" fill="black"/>
<path d="M1056.08 1334.9H64.3162C64.3162 1334.9 122.748 1211.76 148.63 1071.37C166.669 974.117 180.002 917.255 230.591 885.882C266.277 863.921 366.669 832.157 438.042 821.96C467.061 818.039 524.708 813.725 574.512 817.647C612.159 822.353 689.806 844.313 719.61 852.549C764.316 865.098 861.179 902.353 903.924 941.568C920.787 957.255 960.787 1035.69 986.669 1149.41C1016.47 1278.82 1056.08 1334.9 1056.08 1334.9Z" fill="black"/>
<path d="M1065.1 1339.61C775.295 1342.35 350.981 1348.24 64.7069 1347.06C56.0795 1347.45 49.805 1337.65 53.7265 1329.8C91.3736 1246.67 120.001 1158.04 137.648 1068.24C152.158 998.039 161.177 909.412 232.158 872.549C267.06 854.902 303.923 843.137 341.177 832.157C406.668 812.941 476.079 803.529 544.315 805.49C554.903 805.882 565.883 806.274 576.864 807.059C600.393 810.588 623.53 816.47 646.276 822.353C666.668 827.451 687.452 833.333 707.452 839.215C709.805 840.392 710.589 845.098 711.766 847.451C713.334 850.196 715.295 849.804 718.04 848.627C719.217 848.235 720.393 847.451 721.57 847.843C724.315 848.235 728.236 849.804 730.981 850.588C791.766 870.196 852.942 893.333 904.315 932.157C911.766 937.647 917.648 945.098 922.354 952.941C931.766 967.843 939.609 983.137 946.668 998.823C967.844 1045.49 983.53 1094.51 995.295 1144.31C1010.59 1206.67 1028.63 1269.41 1061.18 1325.1L1062.75 1327.45L1063.53 1328.63C1065.88 1330.59 1066.67 1336.47 1065.1 1339.61ZM1047.06 1330.2C1045.1 1332.55 1045.49 1337.65 1047.06 1339.61L1046.67 1338.82L1045.88 1337.25C1027.84 1309.02 1014.51 1277.65 1003.14 1246.67C991.374 1214.9 982.354 1181.18 974.511 1148.23C963.138 1099.61 948.236 1051.76 928.236 1006.27C919.609 987.059 910.981 967.843 898.04 951.764C890.589 944.313 881.962 938.039 872.942 932.157C827.844 903.137 777.256 881.961 726.276 865.49C724.315 864.706 719.609 863.529 717.256 862.745C714.903 861.961 714.903 855.294 713.334 853.725C709.805 850.588 705.883 859.215 702.354 858.431C682.354 852.941 661.57 847.451 641.177 842.745C616.864 837.255 592.942 830.98 568.628 829.019C461.178 821.961 352.55 844.706 253.726 887.451C205.883 907.059 187.844 951.372 176.472 998.823C166.276 1038.82 160.393 1082.35 150.981 1122.74C132.942 1197.65 107.844 1269.8 76.0795 1340.39L65.0991 1323.14C343.53 1322.35 764.707 1326.67 1047.06 1330.2Z" fill="black"/>
<path d="M717.644 963.137C709.409 1003.53 656.075 1027.84 566.271 991.372C472.938 953.725 432.546 863.921 422.35 837.255C477.644 733.725 439.213 661.961 439.213 661.961C566.664 650.98 678.036 800 678.036 800L695.291 873.725C696.86 880 699.997 885.49 704.703 889.412C712.938 903.921 722.742 937.255 717.644 963.137Z" fill="#F7D3B5"/>
<path d="M420.391 838.431C427.842 827.059 432.548 813.726 435.685 800.784C441.567 773.726 443.528 746.275 443.92 718.824V708.627C442.744 698.431 439.214 687.843 435.293 678.431C430.195 665.882 448.626 658.039 454.508 670.588C455.293 672.157 455.293 674.902 455.293 676.471C456.469 729.804 458.822 798.431 425.097 842.745C422.744 845.098 418.038 841.569 420.391 838.431Z" fill="black"/>
<path d="M682.35 799.216C688.233 802.745 690.194 807.451 690.978 812.157C693.331 821.569 692.546 831.765 694.899 841.569C696.86 850.981 702.743 860 704.311 869.804C706.272 880 712.154 901.569 714.507 912.157C715.292 914.51 713.723 917.255 710.978 917.647C709.409 918.04 708.233 917.647 707.056 916.863C701.958 912.549 699.605 908.236 696.468 902.745C691.37 893.334 687.841 884.706 684.703 874.118C681.958 864.706 683.135 854.51 680.782 844.706C678.821 835.294 673.331 826.275 671.37 816.471C670.194 811.765 669.801 806.667 673.331 800.785C675.684 798.432 679.605 797.647 682.35 799.216Z" fill="black"/>
<path d="M710.587 902.745C635.685 898.823 574.508 875.294 514.901 769.02C565.097 813.333 624.312 830.196 686.665 838.039L694.901 874.117C696.469 880.392 705.881 898.823 710.587 902.745Z" fill="black"/>
<path d="M707.451 888.235C720.785 913.333 728.628 944.706 720.392 972.549C714.118 992.157 696.079 1006.67 676.471 1012.16C630.981 1024.31 578.432 1005.1 538.039 983.529C488.236 955.686 451.373 909.019 427.843 858.039C426.275 854.117 431.765 850.98 434.118 854.902C442.353 871.372 451.765 887.451 462.353 901.961C472.941 916.863 485.098 930.588 498.824 942.745C538.824 978.823 592.941 1001.18 647.059 1001.18C702.745 999.608 723.922 970.196 710.981 916.078C709.02 907.451 705.883 898.431 701.569 890.98C699.216 887.843 705.098 884.314 707.451 888.235Z" fill="black"/>
<path d="M859.214 417.255C866.273 450.196 860.783 472.157 857.645 563.137C854.508 652.549 828.626 778.824 796.861 810.588C772.547 834.51 694.508 853.334 625.096 835.686C589.802 826.667 559.998 806.275 535.685 791.765C505.096 773.333 478.43 716.471 456.469 680C439.214 651.373 440.783 685.883 418.43 661.177C387.449 627.451 350.194 559.608 368.626 439.608C398.43 245.098 552.547 222.353 666.665 243.922C781.567 265.49 840.391 330.588 859.214 417.255Z" fill="#F7D3B5"/>
<path d="M438.039 695.686C429.02 680.784 417.255 667.451 406.667 653.333C390.981 631.765 379.216 607.059 371.373 581.569C337.255 472.549 358.039 329.804 461.177 265.49C554.902 205.882 736.863 227.451 812.941 309.02C841.569 338.431 860 376.863 867.843 416.863C868.236 419.216 869.412 423.529 869.804 425.882C870.196 427.843 871.373 430.196 870.981 432.549C870.196 441.177 868.628 449.804 867.843 458.431C861.961 510.588 863.53 563.922 856.863 616.078C850.981 670.98 843.138 725.882 826.667 778.824C821.569 794.902 811.765 809.412 798.824 820C769.804 844.314 731.765 852.549 695.294 854.118C622.353 857.647 548.236 831.765 505.883 770.196C504.314 767.843 507.451 765.098 509.412 767.451C544.706 805.49 592.549 829.804 643.53 835.294C700 841.961 785.098 836.863 809.804 776.471C838.432 690.98 853.334 600.392 854.902 510.588C854.902 488.627 853.726 466.667 853.726 444.314C853.726 441.569 854.118 435.294 854.118 432.549C854.118 432.549 854.118 432.157 854.118 432.549C854.118 432.941 854.118 432.941 854.118 432.549C850.981 424.706 849.804 416.078 847.451 408.235C838.824 375.686 823.138 344.706 800.785 320C726.667 236.863 561.569 216.078 469.02 278.431C395.686 327.059 376.079 420.392 370.981 502.745C366.667 564.314 384.706 624.706 431.373 667.059L449.804 686.275C457.647 694.902 444.314 705.098 438.039 695.686Z" fill="black"/>
<path d="M484.315 570.98C484.315 570.98 472.158 512.157 414.904 519.215C365.492 525.49 348.237 643.921 460.394 676.863" fill="#F7D3B5"/>
<path d="M455.293 625.491C446.273 620.393 439.999 611.765 439.606 601.177C439.999 593.334 441.175 584.314 439.214 576.471C438.038 569.02 430.195 567.059 424.312 567.451C418.038 568.628 414.116 576.471 412.94 582.746C412.94 583.138 412.548 584.314 412.548 584.706C412.155 586.667 409.018 586.667 408.234 584.706C403.136 569.412 414.508 552.549 430.979 554.51C454.116 556.079 457.253 580.393 452.94 598.824C450.587 606.667 453.724 613.726 458.038 620.393L458.822 621.569C460.783 623.922 457.646 627.059 455.293 625.491Z" fill="black"/>
<path d="M769.022 529.412C774.904 557.255 785.885 583.137 799.61 607.451C811.767 637.255 780.394 665.49 752.551 664.313C749.414 664.313 749.022 660 751.767 659.215C769.414 653.725 785.492 641.961 788.237 623.921C789.414 618.431 787.845 613.725 785.1 609.019C772.159 584.706 764.316 556.862 766.277 529.412C766.277 527.451 769.022 527.451 769.022 529.412Z" fill="black"/>
<path d="M482.353 571.373C473.334 548.235 453.726 526.275 427.451 526.667C425.098 526.275 421.177 527.059 418.824 527.059C412.157 527.451 406.667 529.804 401.569 534.51C376.471 559.608 380.785 603.922 401.177 631.765C408.236 641.569 417.255 650.196 427.451 657.255C437.647 664.314 449.02 669.804 461.177 674.51C463.922 675.294 462.745 679.608 460 679.216C433.726 673.725 408.628 660.784 391.373 639.216C364.706 607.059 359.216 553.333 390.981 521.961C398.039 515.686 407.843 510.98 417.647 510.98C420.785 510.98 425.49 510.196 428.628 510.98C445.098 511.765 460.785 520 470.981 532.941C480 543.922 485.098 557.255 486.667 570.588C486.667 572.941 483.138 573.725 482.353 571.373Z" fill="black"/>
<path d="M739.216 703.529C714.118 727.451 666.667 708.235 654.118 679.216C652.549 675.686 656.471 672.549 659.608 674.117C666.275 677.647 672.157 681.176 678.432 683.921C696.471 692.157 715.294 698.823 735.294 696.863C739.216 696.078 741.961 700.784 739.216 703.529Z" fill="black"/>
<path d="M622.746 569.412C613.334 569.02 606.275 561.177 607.06 551.765L607.452 540.785C607.844 531.373 615.687 524.314 625.099 525.099C634.511 525.491 641.57 533.334 640.785 542.746L640.393 553.726C640.001 562.746 632.158 569.804 622.746 569.412Z" fill="black"/>
<path d="M787.843 575.295C779.215 574.903 772.549 567.452 772.941 558.824L773.333 548.628C773.725 540.001 781.176 533.334 789.803 533.726C798.431 534.119 805.098 541.57 804.705 550.197L804.313 560.393C803.921 569.02 796.47 575.687 787.843 575.295Z" fill="black"/>
<path d="M658.04 548.236C645.099 539.608 630.981 533.726 615.295 536.863C610.197 537.647 605.099 539.216 601.962 542.746C600.785 544.314 598.04 543.922 598.04 541.569C598.432 533.726 605.099 528.628 611.373 525.491C623.53 519.216 640.393 520.393 651.373 528.628C655.295 530.981 668.628 545.491 661.569 548.628C660.001 549.412 659.217 549.02 658.04 548.236Z" fill="black"/>
<path d="M770.197 550.197C770.197 533.726 790.589 527.844 803.138 533.726C810.197 536.863 815.295 543.138 817.256 550.589C818.04 552.942 814.511 554.903 812.942 552.942C806.275 545.099 794.903 541.177 785.883 545.883C783.138 547.452 782.746 548.628 781.962 550.197C781.962 558.04 770.589 557.648 770.197 550.197Z" fill="black"/>
<path d="M676.864 483.53C685.099 486.275 693.334 478.824 691.766 469.804C690.981 465.098 689.02 460.392 685.099 456.863C673.334 446.275 624.707 436.863 595.295 450.589C569.413 463.138 639.217 470.981 676.864 483.53Z" fill="black"/>
<path d="M794.12 489.804C787.453 492.157 780.394 485.098 781.571 476.863C781.963 472.549 783.532 468.236 786.669 465.098C796.081 455.687 828.237 448.236 848.63 462.745C866.277 474.902 824.708 478.432 794.12 489.804Z" fill="black"/>
<path d="M890.98 357.254C917.647 334.117 956.863 299.215 916.47 250.588C876.078 201.96 801.568 220.784 801.568 220.784C801.568 220.784 817.255 176.078 773.725 160C721.176 140.784 572.157 198.823 572.157 198.823C561.176 198.431 550.588 198.039 540.784 198.039C412.157 195.294 374.902 276.47 373.333 349.411C373.333 349.411 329.804 363.921 318.823 433.333C315.294 455.686 311.765 484.313 320.392 518.823C343.529 612.941 405.882 678.431 445.49 711.764C460.392 700.784 434.118 685.49 436.078 667.451C350.98 625.882 369.412 525.098 414.902 519.215C449.804 514.902 468.235 535.294 476.863 551.764C480.392 556.47 433.333 294.117 704.706 380C758.431 396.862 813.725 411.764 851.372 384.705C855.686 392.941 858.431 402.745 859.216 417.254C859.216 417.254 924.706 391.764 914.902 365.098C911.765 356.078 890.98 357.254 890.98 357.254Z" fill="black"/>
<path d="M1130.2 330.588C1368.24 789.02 949.804 1306.27 450.981 1180C227.059 1124.31 47.0589 930.196 9.80403 702.353C-32.5489 475.686 69.804 232.157 261.177 103.922C523.53 -76.4704 887.059 -16.4704 1074.9 241.569C1076.08 242.745 1075.69 244.706 1074.12 245.883C1072.94 247.059 1070.98 246.667 1069.8 245.098C1043.92 211.765 1014.51 181.569 982.353 154.51C929.412 109.412 867.451 74.1179 801.961 50.1963C468.628 -70.588 102.745 130.196 29.804 478.824C-52.5489 869.412 279.608 1229.02 675.686 1175.29C981.177 1136.86 1208.24 854.902 1183.14 548.235C1177.65 474.118 1158.04 400.785 1125.49 333.334C1124.71 332.157 1125.49 330.588 1126.67 329.804C1127.84 329.02 1129.41 329.412 1130.2 330.588Z" fill="black"/>
</g>
</svg>
